<svg width="70" height="70" viewBox="0 0 70 70" fill="none" xmlns="http://www.w3.org/2000/svg">
<g filter="url(#filter0_d_427_15)">
<circle cx="35" cy="31" r="25" fill="white"/>
</g>
<path d="M33.5 36.25H39.5V37.75H33.5V36.25ZM30.5 36.25H32V37.75H30.5V36.25ZM33.5 32.5H39.5V34H33.5V32.5ZM30.5 32.5H32V34H30.5V32.5ZM33.5 28.75H39.5V30.25H33.5V28.75ZM30.5 28.75H32V30.25H30.5V28.75Z" fill="url(#paint0_linear_427_15)"/>
<path d="M41.75 22.75H39.5V22C39.5 21.6022 39.342 21.2206 39.0607 20.9393C38.7794 20.658 38.3978 20.5 38 20.5H32C31.6022 20.5 31.2206 20.658 30.9393 20.9393C30.658 21.2206 30.5 21.6022 30.5 22V22.75H28.25C27.8522 22.75 27.4706 22.908 27.1893 23.1893C26.908 23.4706 26.75 23.8522 26.75 24.25V40C26.75 40.3978 26.908 40.7794 27.1893 41.0607C27.4706 41.342 27.8522 41.5 28.25 41.5H41.75C42.1478 41.5 42.5294 41.342 42.8107 41.0607C43.092 40.7794 43.25 40.3978 43.25 40V24.25C43.25 23.8522 43.092 23.4706 42.8107 23.1893C42.5294 22.908 42.1478 22.75 41.75 22.75ZM32 22H38V25H32V22ZM41.75 40H28.25V24.25H30.5V26.5H39.5V24.25H41.75V40Z" fill="url(#paint1_linear_427_15)"/>
<defs>
<filter id="filter0_d_427_15" x="0" y="0" width="70" height="70" filterUnits="userSpaceOnUse" color-interpolation-filters="sRGB">
<feFlood flood-opacity="0" result="BackgroundImageFix"/>
<feColorMatrix in="SourceAlpha" type="matrix" values="0 0 0 0 0 0 0 0 0 0 0 0 0 0 0 0 0 0 127 0" result="hardAlpha"/>
<feOffset dy="4"/>
<feGaussianBlur stdDeviation="5"/>
<feComposite in2="hardAlpha" operator="out"/>
<feColorMatrix type="matrix" values="0 0 0 0 0 0 0 0 0 0 0 0 0 0 0 0 0 0 0.1 0"/>
<feBlend mode="normal" in2="BackgroundImageFix" result="effect1_dropShadow_427_15"/>
<feBlend mode="normal" in="SourceGraphic" in2="effect1_dropShadow_427_15" result="shape"/>
</filter>
<linearGradient id="paint0_linear_427_15" x1="35" y1="28.75" x2="35" y2="37.75" gradientUnits="userSpaceOnUse">
<stop stop-color="#BD00FF"/>
<stop offset="1" stop-color="#FF00C7"/>
</linearGradient>
<linearGradient id="paint1_linear_427_15" x1="35" y1="20.5" x2="35" y2="41.5" gradientUnits="userSpaceOnUse">
<stop stop-color="#BD00FF"/>
<stop offset="1" stop-color="#FF00C7"/>
</linearGradient>
</defs>
</svg>
