<svg width="106" height="37" viewBox="0 0 106 37" fill="none" xmlns="http://www.w3.org/2000/svg">
<path d="M70.008 30H65.24V13.168H70.008V30ZM70.456 8.304C70.456 9.17867 70.168 9.872 69.592 10.384C69.0373 10.8747 68.376 11.12 67.608 11.12C66.84 11.12 66.168 10.8747 65.592 10.384C65.0373 9.872 64.76 9.17867 64.76 8.304C64.76 7.42933 65.0373 6.74667 65.592 6.256C66.168 5.744 66.84 5.488 67.608 5.488C68.376 5.488 69.0373 5.744 69.592 6.256C70.168 6.74667 70.456 7.42933 70.456 8.304ZM74.33 8.976L79.098 8.208V13.168H84.826V17.136H79.098V23.056C79.098 24.0587 79.2687 24.8587 79.61 25.456C79.9727 26.0533 80.6873 26.352 81.754 26.352C82.266 26.352 82.7887 26.3093 83.322 26.224C83.8767 26.1173 84.378 25.9787 84.826 25.808L85.498 29.52C84.922 29.7547 84.282 29.9573 83.578 30.128C82.874 30.2987 82.01 30.384 80.986 30.384C79.6847 30.384 78.6073 30.2133 77.754 29.872C76.9007 29.5093 76.218 29.0187 75.706 28.4C75.194 27.76 74.8313 26.992 74.618 26.096C74.426 25.2 74.33 24.208 74.33 23.12V8.976ZM98.8528 17.392C98.4261 17.2853 97.9248 17.1787 97.3488 17.072C96.7728 16.944 96.1541 16.88 95.4928 16.88C95.1941 16.88 94.8314 16.912 94.4048 16.976C93.9994 17.0187 93.6901 17.072 93.4768 17.136V30H88.7088V14.064C89.5621 13.7653 90.5648 13.488 91.7168 13.232C92.8901 12.9547 94.1914 12.816 95.6208 12.816C95.8768 12.816 96.1861 12.8373 96.5488 12.88C96.9114 12.9013 97.2741 12.944 97.6368 13.008C97.9994 13.0507 98.3621 13.1147 98.7248 13.2C99.0874 13.264 99.3968 13.3493 99.6528 13.456L98.8528 17.392ZM104.975 27.472C104.975 28.432 104.665 29.168 104.047 29.68C103.449 30.1707 102.767 30.416 101.999 30.416C101.231 30.416 100.537 30.1707 99.9185 29.68C99.3212 29.168 99.0225 28.432 99.0225 27.472C99.0225 26.512 99.3212 25.7867 99.9185 25.296C100.537 24.784 101.231 24.528 101.999 24.528C102.767 24.528 103.449 24.784 104.047 25.296C104.665 25.7867 104.975 26.512 104.975 27.472Z" fill="black"/>
<path d="M0.742325 6.22672C27.0277 3.65411 34.4379 23.6105 34.8573 33.9102C25.6854 38.8317 16.4017 35.9608 12.9063 33.9102C-0.851574 27.1991 -0.935463 12.6582 0.742325 6.22672Z" fill="#28CCE2"/>
<path d="M47.2577 6.22672C20.9723 3.65411 13.5621 23.6105 13.1427 33.9102C22.3146 38.8317 31.5983 35.9608 35.0937 33.9102C48.8516 27.1991 48.9355 12.6582 47.2577 6.22672Z" fill="#407EDA" style="mix-blend-mode:multiply"/>
</svg>
