<svg width="83" height="42" viewBox="0 0 83 42" fill="none" xmlns="http://www.w3.org/2000/svg">
<path d="M28.806 9.58083L25.37 3.38728L3.22702 16.355L16.0801 38.7421L38.0322 25.7099L31.542 14.2905L33.0055 13.4518L40.3865 26.355L15.4438 41.0002L1 15.7099L26.0063 1.0647L30.2694 8.74212L28.806 9.58083Z" stroke="white"/>
<path d="M30.6513 27.9677L29.2514 28.7419L21.7432 15.7097L46.7494 1.06452L51.0126 8.67742L49.6128 9.45161L46.0495 3.45161L24.0338 16.4194L30.6513 27.9677Z" stroke="white"/>
<path d="M31.7966 33.3871L36.2506 41L61.1297 26.3548L53.6214 13.2581L52.2216 14.0968L58.839 25.7097L36.7597 38.6774L33.1964 32.5484L31.7966 33.3871Z" stroke="white"/>
<path d="M51.5216 27.9677L50.1854 28.8064L50.0582 28.871L42.5499 15.7097L67.5562 1L82 26.3548L56.9301 41L52.6033 33.4516L54.1304 32.6129L57.63 38.6774L79.6458 25.7097L66.8563 3.51613L44.9042 16.3548L51.5216 27.9677Z" stroke="white"/>
</svg>
