<svg width="21" height="20" viewBox="0 0 21 20" fill="none" xmlns="http://www.w3.org/2000/svg">
<path d="M7.875 13.125C7.875 12.9592 7.94414 12.8003 8.06721 12.6831C8.19028 12.5658 8.3572 12.5 8.53125 12.5H12.4688C12.6428 12.5 12.8097 12.5658 12.9328 12.6831C13.0559 12.8003 13.125 12.9592 13.125 13.125C13.125 13.2908 13.0559 13.4497 12.9328 13.5669C12.8097 13.6842 12.6428 13.75 12.4688 13.75H8.53125C8.3572 13.75 8.19028 13.6842 8.06721 13.5669C7.94414 13.4497 7.875 13.2908 7.875 13.125ZM5.25 9.375C5.25 9.20924 5.31914 9.05027 5.44221 8.93306C5.56528 8.81585 5.7322 8.75 5.90625 8.75H15.0938C15.2678 8.75 15.4347 8.81585 15.5578 8.93306C15.6809 9.05027 15.75 9.20924 15.75 9.375C15.75 9.54076 15.6809 9.69973 15.5578 9.81694C15.4347 9.93415 15.2678 10 15.0938 10H5.90625C5.7322 10 5.56528 9.93415 5.44221 9.81694C5.31914 9.69973 5.25 9.54076 5.25 9.375ZM2.625 5.625C2.625 5.45924 2.69414 5.30027 2.81721 5.18306C2.94028 5.06585 3.1072 5 3.28125 5H17.7188C17.8928 5 18.0597 5.06585 18.1828 5.18306C18.3059 5.30027 18.375 5.45924 18.375 5.625C18.375 5.79076 18.3059 5.94973 18.1828 6.06694C18.0597 6.18415 17.8928 6.25 17.7188 6.25H3.28125C3.1072 6.25 2.94028 6.18415 2.81721 6.06694C2.69414 5.94973 2.625 5.79076 2.625 5.625Z" fill="#ABABAB"/>
</svg>
