<svg width="81" height="81" viewBox="0 0 81 81" fill="none" xmlns="http://www.w3.org/2000/svg">
<path d="M32.5974 0.758843C37.8171 -0.252948 43.1826 -0.252948 48.4024 0.758843C49.0602 0.890108 49.6391 1.27702 50.0119 1.83463C50.3847 2.39225 50.521 3.075 50.3908 3.73301C50.2607 4.39102 49.8748 4.9705 49.3178 5.34425C48.7608 5.718 48.0782 5.85547 47.42 5.72649C42.849 4.84191 38.1508 4.84191 33.5798 5.72649C32.9351 5.82464 32.2774 5.6703 31.7437 5.2956C31.21 4.92091 30.8414 4.35475 30.7148 3.71508C30.5882 3.07542 30.7132 2.41155 31.0639 1.86179C31.4146 1.31203 31.9639 0.91876 32.5974 0.763907V0.758843ZM59.4978 7.50897C59.683 7.23255 59.9207 6.99533 60.1976 6.81085C60.4744 6.62638 60.7849 6.49826 61.1113 6.43384C61.4377 6.36941 61.7736 6.36993 62.0998 6.43537C62.426 6.50081 62.736 6.62988 63.0123 6.81522C67.4321 9.77473 71.2291 13.5716 74.1888 17.9912C74.3806 18.2673 74.5155 18.5789 74.5856 18.9077C74.6557 19.2365 74.6596 19.576 74.5971 19.9063C74.5345 20.2367 74.4069 20.5512 74.2215 20.8317C74.0361 21.1122 73.7966 21.3529 73.5172 21.5399C73.2378 21.7268 72.9239 21.8563 72.5939 21.9206C72.2639 21.985 71.9243 21.983 71.5951 21.9147C71.2659 21.8465 70.9536 21.7133 70.6764 21.5231C70.3991 21.3329 70.1626 21.0893 69.9805 20.8067C67.3893 16.9381 64.0654 13.6144 60.1967 11.0233C59.9199 10.8386 59.6822 10.6011 59.4972 10.3244C59.3122 10.0478 59.1836 9.73739 59.1187 9.41099C59.0538 9.0846 59.0539 8.74861 59.1189 8.42224C59.184 8.09587 59.3127 7.78553 59.4978 7.50897ZM21.5019 7.50897C21.6873 7.78523 21.8163 8.0953 21.8818 8.42148C21.9472 8.74765 21.9477 9.08352 21.8833 9.40989C21.8189 9.73626 21.6908 10.0467 21.5063 10.3236C21.3218 10.6004 21.0846 10.8382 20.8081 11.0233C16.938 13.6123 13.6124 16.9343 11.0192 20.8016C10.6326 21.3267 10.0583 21.6825 9.41597 21.7947C8.77359 21.907 8.11267 21.7671 7.57088 21.4042C7.02909 21.0413 6.64822 20.4833 6.5076 19.8466C6.36698 19.2098 6.47747 18.5434 6.81603 17.9861C9.7743 13.5671 13.5695 9.77028 17.9874 6.81015C18.2637 6.62482 18.5738 6.49574 18.9 6.4303C19.2262 6.36486 19.5621 6.36434 19.8884 6.42877C20.2148 6.4932 20.5253 6.62131 20.8022 6.80579C21.079 6.99027 21.3168 7.23255 21.5019 7.50897ZM3.732 30.6002C4.05868 30.6644 4.36949 30.7924 4.64664 30.9768C4.9238 31.1613 5.16185 31.3986 5.34718 31.6751C5.5325 31.9517 5.66147 32.2621 5.72669 32.5886C5.7919 32.915 5.79209 33.2512 5.72725 33.5777C4.84198 38.1501 4.84198 42.8499 5.72725 47.4223C5.85624 48.0805 5.71876 48.763 5.345 49.32C4.97123 49.877 4.39172 50.2629 3.73368 50.393C3.07564 50.5231 2.39285 50.3869 1.83521 50.0141C1.27757 49.6413 0.890641 49.0625 0.75937 48.4047C-0.253123 43.1835 -0.253123 37.8165 0.75937 32.5953C0.890255 31.9376 1.27677 31.3586 1.83407 30.9855C2.39138 30.6124 3.07396 30.4706 3.732 30.6002ZM77.2627 30.6002C77.5893 30.5353 77.9254 30.5355 78.2519 30.6007C78.5783 30.6659 78.8888 30.7949 79.1653 30.9802C79.4419 31.1655 79.6792 31.4036 79.8637 31.6807C80.0482 31.9579 80.1762 32.2687 80.2404 32.5953C81.2532 37.7098 81.2532 43.2851 80.2404 48.4047C80.1889 48.7427 80.0695 49.0669 79.8893 49.3575C79.7092 49.6481 79.472 49.8993 79.1921 50.0958C78.9123 50.2922 78.5955 50.43 78.2609 50.5007C77.9264 50.5715 77.5809 50.5737 77.2455 50.5073C76.91 50.4409 76.5915 50.3072 76.3091 50.1144C76.0267 49.9215 75.7864 49.6735 75.6025 49.3852C75.4186 49.0969 75.295 48.7743 75.2391 48.437C75.1833 48.0996 75.1964 47.7545 75.2776 47.4223C76.1627 42.8499 76.1627 38.1501 75.2776 33.5777C75.148 32.9197 75.2847 32.2372 75.6579 31.6799C76.031 31.1226 76.61 30.7361 77.2678 30.6052L77.2627 30.6002ZM7.51488 59.5047C8.07245 59.132 8.75513 58.9957 9.41307 59.1258C10.071 59.2558 10.6505 59.6416 11.0243 60.1984C13.6168 64.0676 16.9425 67.3914 20.8132 69.9818C21.3712 70.3558 21.7579 70.9362 21.888 71.5953C22.0181 72.2543 21.881 72.9381 21.507 73.4961C21.1329 74.0541 20.5525 74.4407 19.8934 74.5708C19.2343 74.7009 18.5505 74.5639 17.9925 74.1899C13.5728 71.2302 9.77578 67.4334 6.81603 63.0139C6.4438 62.4557 6.30832 61.7727 6.43936 61.1147C6.57039 60.4567 6.95721 59.8777 7.51488 59.5047ZM73.5001 59.5047C74.0569 59.8785 74.4427 60.4579 74.5728 61.1158C74.7028 61.7737 74.5666 62.4564 74.1939 63.0139C71.2342 67.4335 67.4372 71.2303 63.0174 74.1899C62.4601 74.5284 61.7936 74.6389 61.1568 74.4983C60.52 74.3577 59.9621 73.9768 59.5991 73.435C59.2362 72.8933 59.0963 72.2324 59.2086 71.59C59.3208 70.9477 59.6766 70.3734 60.2018 69.9868C64.071 67.3942 67.3948 64.0688 69.9856 60.1984C70.1707 59.922 70.4085 59.6848 70.6853 59.5003C70.9622 59.3158 71.2727 59.1877 71.5991 59.1233C71.9254 59.0589 72.2613 59.0594 72.5875 59.1248C72.9137 59.1903 73.2238 59.3193 73.5001 59.5047ZM30.6072 77.2687C30.6719 76.9425 30.8004 76.6322 30.9851 76.3556C31.1698 76.0791 31.4072 75.8416 31.6837 75.6568C31.9602 75.472 32.2705 75.3435 32.5967 75.2786C32.9229 75.2137 33.2586 75.2137 33.5849 75.2786C38.1558 76.1634 42.8541 76.1634 47.425 75.2786C48.0697 75.1804 48.7274 75.3348 49.2611 75.7095C49.7948 76.0842 50.1634 76.6503 50.29 77.29C50.4167 77.9297 50.2916 78.5935 49.9409 79.1433C49.5902 79.693 49.0409 80.0863 48.4075 80.2412C43.1877 81.2529 37.8222 81.2529 32.6024 80.2412C31.9437 80.1114 31.3635 79.7254 30.9893 79.168C30.6151 78.6106 30.4777 77.9274 30.6072 77.2687Z" fill="white"/>
<path d="M23.356 35.684V44H22.192V36.68H18.196V44H17.032V35.684H23.356ZM25.0026 40.892C25.0026 40.34 25.0826 39.86 25.2426 39.452C25.4026 39.036 25.6146 38.692 25.8786 38.42C26.1426 38.148 26.4466 37.944 26.7906 37.808C27.1346 37.672 27.4866 37.604 27.8466 37.604C28.6866 37.604 29.3306 37.868 29.7786 38.396C30.2266 38.916 30.4506 39.712 30.4506 40.784C30.4506 40.832 30.4506 40.896 30.4506 40.976C30.4506 41.048 30.4466 41.116 30.4386 41.18H26.1666C26.2146 41.828 26.4026 42.32 26.7306 42.656C27.0586 42.992 27.5706 43.16 28.2666 43.16C28.6586 43.16 28.9866 43.128 29.2506 43.064C29.5226 42.992 29.7266 42.924 29.8626 42.86L30.0186 43.796C29.8826 43.868 29.6426 43.944 29.2986 44.024C28.9626 44.104 28.5786 44.144 28.1466 44.144C27.6026 44.144 27.1306 44.064 26.7306 43.904C26.3386 43.736 26.0146 43.508 25.7586 43.22C25.5026 42.932 25.3106 42.592 25.1826 42.2C25.0626 41.8 25.0026 41.364 25.0026 40.892ZM29.2866 40.28C29.2946 39.776 29.1666 39.364 28.9026 39.044C28.6466 38.716 28.2906 38.552 27.8346 38.552C27.5786 38.552 27.3506 38.604 27.1506 38.708C26.9586 38.804 26.7946 38.932 26.6586 39.092C26.5226 39.252 26.4146 39.436 26.3346 39.644C26.2626 39.852 26.2146 40.064 26.1906 40.28H29.2866ZM36.3858 40.892C36.3858 40.164 36.2058 39.604 35.8458 39.212C35.4858 38.82 35.0058 38.624 34.4058 38.624C34.0698 38.624 33.8058 38.636 33.6138 38.66C33.4298 38.684 33.2818 38.712 33.1698 38.744V42.68C33.3058 42.792 33.5018 42.9 33.7578 43.004C34.0138 43.108 34.2938 43.16 34.5978 43.16C34.9178 43.16 35.1898 43.104 35.4138 42.992C35.6458 42.872 35.8338 42.712 35.9778 42.512C36.1218 42.304 36.2258 42.064 36.2898 41.792C36.3538 41.512 36.3858 41.212 36.3858 40.892ZM37.5498 40.892C37.5498 41.364 37.4858 41.8 37.3578 42.2C37.2378 42.6 37.0578 42.944 36.8178 43.232C36.5778 43.52 36.2818 43.744 35.9298 43.904C35.5858 44.064 35.1898 44.144 34.7418 44.144C34.3818 44.144 34.0618 44.096 33.7818 44C33.5098 43.904 33.3058 43.812 33.1698 43.724V46.22H32.0538V37.952C32.3178 37.888 32.6458 37.82 33.0378 37.748C33.4378 37.668 33.8978 37.628 34.4178 37.628C34.8978 37.628 35.3298 37.704 35.7138 37.856C36.0978 38.008 36.4258 38.224 36.6978 38.504C36.9698 38.784 37.1778 39.128 37.3218 39.536C37.4738 39.936 37.5498 40.388 37.5498 40.892ZM38.7722 40.892C38.7722 40.34 38.8522 39.86 39.0122 39.452C39.1722 39.036 39.3842 38.692 39.6482 38.42C39.9122 38.148 40.2162 37.944 40.5602 37.808C40.9042 37.672 41.2562 37.604 41.6162 37.604C42.4562 37.604 43.1002 37.868 43.5482 38.396C43.9962 38.916 44.2202 39.712 44.2202 40.784C44.2202 40.832 44.2202 40.896 44.2202 40.976C44.2202 41.048 44.2162 41.116 44.2082 41.18H39.9362C39.9842 41.828 40.1722 42.32 40.5002 42.656C40.8282 42.992 41.3402 43.16 42.0362 43.16C42.4282 43.16 42.7562 43.128 43.0202 43.064C43.2922 42.992 43.4962 42.924 43.6322 42.86L43.7882 43.796C43.6522 43.868 43.4122 43.944 43.0682 44.024C42.7322 44.104 42.3482 44.144 41.9162 44.144C41.3722 44.144 40.9002 44.064 40.5002 43.904C40.1082 43.736 39.7842 43.508 39.5282 43.22C39.2722 42.932 39.0802 42.592 38.9522 42.2C38.8322 41.8 38.7722 41.364 38.7722 40.892ZM43.0562 40.28C43.0642 39.776 42.9362 39.364 42.6722 39.044C42.4162 38.716 42.0602 38.552 41.6042 38.552C41.3482 38.552 41.1202 38.604 40.9202 38.708C40.7282 38.804 40.5642 38.932 40.4282 39.092C40.2922 39.252 40.1842 39.436 40.1042 39.644C40.0322 39.852 39.9842 40.064 39.9602 40.28H43.0562ZM51.0673 37.76V44H49.9873V39.248C49.7473 39.552 49.4833 39.908 49.1953 40.316C48.9073 40.724 48.6193 41.148 48.3313 41.588C48.0433 42.02 47.7673 42.448 47.5033 42.872C47.2393 43.296 47.0113 43.672 46.8193 44H45.8233V37.76H46.9033V42.248C47.1113 41.904 47.3473 41.528 47.6113 41.12C47.8753 40.704 48.1473 40.296 48.4273 39.896C48.7153 39.488 48.9993 39.1 49.2793 38.732C49.5673 38.356 49.8353 38.032 50.0833 37.76H51.0673ZM48.4513 36.752C47.9473 36.752 47.5353 36.624 47.2153 36.368C46.9033 36.112 46.7153 35.756 46.6513 35.3L47.5033 35.072C47.5673 35.328 47.6753 35.536 47.8273 35.696C47.9793 35.856 48.1873 35.936 48.4513 35.936C48.7153 35.936 48.9233 35.856 49.0753 35.696C49.2273 35.536 49.3353 35.328 49.3993 35.072L50.2393 35.3C50.1753 35.756 49.9873 36.112 49.6753 36.368C49.3633 36.624 48.9553 36.752 48.4513 36.752ZM57.3874 37.76V38.696H55.3594V44H54.2434V38.696H52.2154V37.76H57.3874ZM63.7821 37.76V44H62.7021V39.248C62.4621 39.552 62.1981 39.908 61.9101 40.316C61.6221 40.724 61.3341 41.148 61.0461 41.588C60.7581 42.02 60.4821 42.448 60.2181 42.872C59.9541 43.296 59.7261 43.672 59.5341 44H58.5381V37.76H59.6181V42.248C59.8261 41.904 60.0621 41.528 60.3261 41.12C60.5901 40.704 60.8621 40.296 61.1421 39.896C61.4301 39.488 61.7141 39.1 61.9941 38.732C62.2821 38.356 62.5501 38.032 62.7981 37.76H63.7821Z" fill="white"/>
</svg>
